<?xml version="1.0" encoding="UTF-8"?>
<svg id="Layer_2" data-name="Layer 2" xmlns="http://www.w3.org/2000/svg" viewBox="0 0 217.21 199.3">
  <defs>
    <style>
      .cls-1 {
        fill: #393e82;
      }
    </style>
  </defs>
  <g id="Layer_1-2" data-name="Layer 1">
    <g>
      <path class="cls-1" d="M14.02,160.04c1.89-2.61,2.25-6.43,2.25-6.43.82-3.11.44-9.42.81-12.89.38-3.51.33-7.73.9-11.07.1-.59.25-1.37.66-1.81.57-.61,4.52-1.83,5.77-2.43,16.47-7.9,21.57-15.28,31.35-29.7.34-.5.51-1.17.89-1.66-1.46-2.21-3.2-.74-4.91-.24-10.68,3.13-19.41,6.4-26.61,15.32-2.1,2.6-3.65,5.81-5.74,8.44-.02-2.8.66-6.08,1.32-8.85.44-1.85,1.12-4.07,1.69-5.9.63-2.04,3.52-10.82,5.12-11.57,5.88-1.66,12.19-1.01,18.16-2.35,9.82-2.21,16.23-7.29,23.59-13.43,1.27-1.06,3.61-1.6,3.84-3.59.15-1.34-3.01-.99-3.61-1.05-12.53-1.31-22.04.29-32.57,7.4-.72.48-4.52,3.64-4.96,3.4.26-.81.67-1.64,1.11-2.38,3.04-5.13,7.01-9.78,10.85-14.28,1.23-1.44,2.08-3.54,3.97-4.27,1.55-.6,5.87,1.31,7.81,1.74,8.71,1.94,19.26,2.46,27.97.32,1.9-.47,13.02-4.65,13.56-5.95l.04-.73c-.53-1.95-10.9-4.76-13.04-5.23-8.71-1.9-18.14-1.67-26.51,1.6-.1-.06.32-.89.45-1.07,1.3-1.88,13.23-8.95,15.85-10.14,3.26-1.49,4.54-1.39,7.71.09,3.34,1.56,6.37,3.97,9.67,5.62,8.98,4.48,22.65,6.99,32.65,5.9,1.87-.2,4.09-.33,2.81-2.82-.66-1.28-6.28-5.87-7.74-6.87-5.47-3.76-11.17-6.63-17.78-7.79l-8.94-.66c1.53-1.41,3.59-1.16,5.49-1.61,4.89-1.15,9.31-1.9,14.44-1.99,2.01-.03,7.03,0,8.47,1.32.99.91,2.26,4.04,3.17,5.45,7.54,11.66,18.03,17.29,30.65,21.98.99.37,3.41,1.44,3.64-.25.2-1.42-3.5-8.24-4.45-9.86-4.35-7.44-11.66-13.53-19.52-16.97.74-.16,1.93.03,2.68.17,4.01.76,9.01,2.29,12.88,3.65,1.92.68,6.58,2.27,7.87,3.54,1.44,1.41,1.79,6.58,2.46,8.89,2.85,9.81,9.53,20.27,18.24,25.74.65.41,5.78,3.62,5.81,1.74l-2.54-12.56c-.7-1.95-1.29-3.92-2.15-5.81-1.39-3.05-3.78-5.6-4.44-8.97,1.14.79,2.34,1.42,3.46,2.24.99.73,4.02,2.99,4.67,3.74,1.13,1.31,2.48,4.99,3.66,6.89,7.11,11.41,15.17,16.45,27.94,19.74,2.47.64,2.67-.12,2.05-2.48-3.14-11.96-14.79-19.93-25.19-24.94-2.99-1.44-7.42-2.09-9.07-5.22,7.61.33,15.25,1.06,22.72-.95,1.55-.42,4.64-1.33,5.98-2.03,1.12-.58,1.31-1,.46-1.92-1.16-1.27-6.41-4.67-8.13-5.64-7.91-4.48-16.94-4.12-25.53-2.02-2.17.53-6.92,2.53-8.69,2.49-5.4-.12-11.61-4.68-17.13-5.53l-1.85-1.13c3.6-.47,7.29-.62,10.85-1.42,5.45-1.23,16.42-6.87,21.02-10.21.62-.45,2.44-1.98,2.12-2.72-.38-.88-5.08-1.49-6.21-1.66-11.58-1.69-22.3-.24-32.56,5.53-3.09,1.74-5.56,4.34-8.45,6.36-4.01.15-8.1-.73-12.01-.96-2.1-.13-4.75.55-6.62-.36,2.58-1.4,5.62-2.13,8.22-3.45,7.71-3.93,17.51-12.63,21.15-20.55.57-1.24,0-1.63-1.27-1.72-2.1-.15-8.23,1.01-10.54,1.55-7.89,1.85-17.17,7.59-22.47,13.74-2.9,3.36-4.49,7.61-7.65,10.75-2.76.99-5.69,1.09-8.52,1.71-2.53.55-5.07,1.81-7.83,1.83,1.75-1.92,3.83-3.57,5.6-5.48,4.04-4.38,7.89-11.2,9.7-16.9.38-1.18,1.64-5.78,1.61-6.74-.06-2.35-1.84-1.85-3.36-1.15-11.86,5.45-21.31,15.42-25.84,27.59-.75,2.02-1.74,7.3-3.03,8.49-1.64,1.51-5.95,3.29-8.11,4.55-.94.55-5.97,4.1-6.48,3.82.53-2.78,2.62-5.06,3.77-7.58,2.87-6.31,4.32-16.37,3.73-23.27-.07-.88-.34-3.48-1.1-3.83l-.71-.02c-8.88,7.99-16.11,18.2-17.98,30.23-.73,4.67-.43,9.56-1.02,14.03-.37,2.77-6.2,8.41-8.24,10.82-1.23,1.46-2.21,3.17-3.55,4.55l1.88-10.86c.64-6.68-.14-14.95-2.17-21.37-.28-.88-1.95-5.65-2.97-5.3-1.55.54-7.73,14.47-8.5,16.77-2.49,7.48-2.32,14.6-1.1,22.32l3.1,12.75c-.87,3.1-2.17,6.09-3.27,9.09-1.11,3.01-1.9,6.42-3.67,9.05-.64-4.47-.48-9.06-1.4-13.5-1.23-5.9-5.35-14.88-8.71-19.92-.39-.59-3.19-4.11-3.52-4.28-1.63-.87-2.65,2.92-2.91,4.04-3.73,16.08-.18,29.16,8.36,42.83,1.26,2.02,4.13,4.94,4.45,7.2-1.02,7.38-.9,15.28-1.88,22.6l-2.13,13.23s1.86,8.01,3.75,5.4ZM118.74,48.1c-1.36.11-2.84.6-4.17.66-4.5.2-12.96-1.95-17.17-3.72-2.22-.93-7.35-3.49-9.27-4.78-.21-.14-1.3-1.21-1.24-1.28,11.26-1.44,23.24,1.61,31.84,9.11ZM142.17,42.31c3.45,2.9,6.96,6.77,8.39,11.06-.31.34-5.21-1.83-5.92-2.19-5.31-2.66-11.68-7.61-15.15-12.46-1-1.41-1.9-2.94-2.06-4.69,5.22,1.56,10.57,4.77,14.74,8.28ZM190.73,58.21c5.69,2.65,12.35,6.98,16.35,11.87,1.37,1.68,2.92,3.79,3.16,6-9.51-2.67-16.24-9.79-20.89-18.23.46.13.95.16,1.39.37ZM175.59,59.42c.81,1.85,2.2,5.27,2.71,7.15.24.88.3,1.8.46,2.69-4.12-2.27-7.35-6.59-9.78-10.55-2.66-4.32-4.6-9.15-5.35-14.2,5.32,3.41,9.44,9.13,11.97,14.91ZM195.48,39.75c2.87.65,5.68,2.27,8.13,3.88-.21.46-.49.49-.92.6-7.38,2.02-18.44,1.28-25.45-1.82-.34-.15-.79-.19-.78-.67.03-.4,1.4-.88,1.79-.99,5.74-1.7,11.34-2.34,17.23-1ZM150.55,23.95c7.08-3.59,15.97-5.15,23.72-3.4.19.46-.31.63-.59.84-1.33,1-3.96,2.17-5.55,2.85-7.09,3.04-15.41,4.9-23.08,3.74-.56-.54,5.05-3.8,5.49-4.03ZM114.81,22.45c2.28-3.95,9.44-10.33,13.54-12.33,1.59-.77,11.15-4.51,12.13-3.54-6.09,8.8-16.32,14.58-26.4,17.76.17-.66.38-1.29.73-1.89ZM85.05,21.72c2.66-4.64,8.99-11.62,13.86-13.88.6-.28,1.16-.57,1.84-.57.47.3-1.92,5.64-2.29,6.36-3.85,7.46-9.97,13.68-17.16,17.98-.83-.77,3.03-8.64,3.75-9.88ZM51.1,47.5c-.47-5.91,2.44-15.36,5.57-20.41.48-.78,5.69-8.03,6.51-7.37.04,2.35-.17,5.02-.59,7.33-1.24,6.8-5.13,14.23-9.08,19.77-.22.31-1.57,1.75-1.82,1.86-.69.29-.55-.74-.59-1.19ZM56,57.43c1.45-.82,4.81-1.98,6.47-2.44,6.28-1.72,14.08-2.03,20.46-.56.75.17,5.04,1.5,5,2.23-.19.51-.56.45-.94.6-7.09,2.81-15.76,3.81-23.28,2.6-2.69-.43-5.27-1.59-8.02-1.77-.2-.69-.07-.46.31-.67ZM26.78,74.95c-.71-5.06-1.93-9.78-1.56-14.91.44-6.04,2.63-12.68,5.35-18.01.38-.07,1.16,2.9,1.29,3.48,2.48,11.11-.36,21.17-4.15,31.49l-.92-2.05ZM36.1,86.3c-.74.06-2.1.19-2.57-.48,2.47-1.19,4.57-3.48,6.86-5.08,7.02-4.93,14.95-6.99,23.51-6.23-.92,1.44-2.47,2.49-3.89,3.41-7.07,4.59-15.42,7.74-23.91,8.38ZM12.07,107.83c-4.62-6.55-7.89-17.21-7.9-25.13,0-1.16.37-8.33,1.09-8.63.74-.3,3,3.75,3.37,4.48,4.63,9.32,5.7,20.53,5.02,30.78-.5-.26-1.26-1.05-1.58-1.5ZM22.9,121.14c3.63-8.68,10.57-15.88,19.13-19.86.97-.45,5.36-2.5,6.06-1.84-3.46,6.51-8.6,11.8-14.68,15.95-1.26.86-9.77,6.18-10.5,5.74Z"/>
      <path class="cls-1" d="M25.03,166.23c13.13-2.33,26.47-3.39,39.81-3.16,4.9.08,13.02-.46,15.19,5.22.88,2.29-.56,4.12-1.82,5.91-1.33,1.89-2.72,3.91-2.68,6.33.11,6.17,7.74,6.68,12.22,7.47,6.63,1.17,13.28,2.26,19.95,3.26,13.28,1.99,26.61,3.65,39.97,4.96,15.02,1.47,30.08,2.49,45.16,3.09,3.19.13,3.18-4.83,0-4.96-27.11-1.07-54.17-3.52-81.02-7.45-6.67-.98-13.32-2.04-19.96-3.19-3.12-.54-6.51-.82-9.53-1.81-2.64-.86-1.74-2.44-.49-4.27,1.33-1.96,2.85-3.85,3.29-6.25.45-2.47-.23-5.03-1.64-7.08-3.35-4.86-9.23-5.86-14.75-6.09-15.06-.61-30.2.61-45.02,3.24-3.13.55-1.81,5.33,1.32,4.78h0Z"/>
    </g>
  </g>
</svg>